<?xml version="1.0" encoding="iso-8859-1"?>
<!-- Generator: Adobe Illustrator 19.0.0, SVG Export Plug-In . SVG Version: 6.00 Build 0)  -->
<svg version="1.1" id="Layer_1" xmlns="http://www.w3.org/2000/svg" xmlns:xlink="http://www.w3.org/1999/xlink" x="0px" y="0px"
	 viewBox="0 0 512 512" style="enable-background:new 0 0 512 512;" xml:space="preserve">
<path style="fill:#F5DCB4;" d="M370.37,137.704l-10.297-10.297l6.334-6.334c3.704-3.704,3.704-9.704,0-13.408
	c-3.704-3.704-9.704-3.704-13.408,0l-6.334,6.334c-7.398,7.388-7.398,19.426,0,26.815l10.297,10.297l-22.334,22.334l13.408,13.408
	l22.334-22.334C377.768,157.129,377.768,145.093,370.37,137.704z"/>
<path style="fill:#464655;" d="M337.406,222.002l-37.926-37.926l20.114-20.114c3.703-3.703,9.707-3.703,13.409,0l24.517,24.517
	c3.702,3.703,3.702,9.707,0,13.409L337.406,222.002z"/>
<circle style="fill:#5B5D6E;" cx="246.519" cy="274.963" r="113.778"/>
<path style="fill:#464655;" d="M294.273,365.905c-1.532-3.831-5.03-6.407-9.103-7.064c-54.168-8.727-95.54-55.693-95.54-112.322
	c0-16.25,3.428-31.682,9.586-45.643c5.765-13.067-10.135-25.081-21.508-16.442c-31.684,24.065-50.354,64.34-43.586,108.517
	c7.285,47.561,45.183,86.053,92.62,94.107c21.772,3.697,42.588,1.145,61.055-6.104C293.748,378.618,296.647,371.841,294.273,365.905
	L294.273,365.905z"/>
<circle style="fill:#707487;" cx="303.407" cy="256" r="28.444"/>
<path style="fill:#FF507D;" d="M256,0C114.842,0,0,114.842,0,256s114.842,256,256,256s256-114.842,256-256S397.158,0,256,0z
	 M40.009,286.477c-8.32-60.969,8.788-117.963,42.171-161.972c3.522-4.644,10.266-5.244,14.387-1.124l292.05,292.05
	c4.121,4.121,3.52,10.865-1.124,14.387c-44.004,33.38-100.991,50.488-161.956,42.174C129.85,458.943,53.067,382.164,40.009,286.477z
	 M415.432,388.617l-292.05-292.05c-4.121-4.121-3.52-10.865,1.124-14.387c44.002-33.378,100.987-50.487,161.951-42.174
	c95.688,13.049,172.474,89.824,185.534,185.511c8.321,60.971-8.787,117.966-42.17,161.976
	C426.297,392.137,419.554,392.74,415.432,388.617z"/>
<path style="fill:#D23C69;" d="M256,18.963C125.088,18.963,18.963,125.088,18.963,256S125.088,493.037,256,493.037
	S493.037,386.912,493.037,256S386.912,18.963,256,18.963z M415.432,388.617L415.432,388.617c-6.74-6.741-17.573-6.471-24.258,0.325
	c-0.738,0.75-1.483,1.495-2.233,2.233c-6.796,6.684-7.065,17.517-0.325,24.257h0.001c4.318,4.318,3.742,10.696-1.124,14.387
	c-44.005,33.38-100.991,50.489-161.957,42.174c-95.688-13.051-172.472-89.828-185.529-185.515
	c-8.32-60.969,8.788-117.964,42.171-161.972c3.691-4.865,10.068-5.441,14.387-1.124l0,0c6.741,6.741,17.574,6.471,24.26-0.326
	c0.737-0.75,1.481-1.493,2.232-2.232c6.796-6.684,7.065-17.517,0.325-24.258l0,0c-4.318-4.318-3.742-10.696,1.124-14.386
	c44.002-33.378,100.985-50.487,161.947-42.175c95.688,13.047,172.474,89.82,185.536,185.508
	c8.324,60.973-8.786,117.97-42.17,161.982C426.129,392.359,419.751,392.935,415.432,388.617z"/>
<path style="fill:#FF6991;" d="M156.563,183.378l172.059,172.059c10.266-7.511,19.304-16.549,26.815-26.815L183.379,156.563
	C173.112,164.075,164.075,173.112,156.563,183.378z"/>
<g>
</g>
<g>
</g>
<g>
</g>
<g>
</g>
<g>
</g>
<g>
</g>
<g>
</g>
<g>
</g>
<g>
</g>
<g>
</g>
<g>
</g>
<g>
</g>
<g>
</g>
<g>
</g>
<g>
</g>
</svg>
